<svg width="438" height="268" viewBox="0 0 438 268" fill="none" xmlns="http://www.w3.org/2000/svg">
<path d="M137.297 217H112.277V65.8574H137.297V217Z" fill="#FFD502"/>
<circle cx="125" cy="143" r="112.5" stroke="#FFD502" stroke-width="25"/>
<path d="M209.685 72.0954C224.947 49.8348 247.005 33.1122 272.56 24.4277C298.115 15.7432 325.794 15.5634 351.46 23.9151C377.125 32.2669 399.398 48.7015 414.949 70.7619C430.499 92.8223 438.491 119.323 437.731 146.303C436.97 173.282 427.497 199.291 410.729 220.44C393.96 241.59 370.797 256.743 344.701 263.636C318.606 270.528 290.98 268.789 265.955 258.679C240.93 248.568 219.85 230.629 205.866 207.544L312.78 142.78L209.685 72.0954Z" fill="#FFD502"/>
<path d="M347.649 150.798L236.086 214.339L237.221 85.3061L347.649 150.798Z" fill="#FFD502"/>
<path d="M343.154 65.8574H368.174V217H343.154L292.295 127.586V80.418L343.154 170.037V65.8574ZM258.867 217V65.8574H283.887V217H258.867Z" fill="white"/>
</svg>
